# xmcd CD database file
#
# Track frame offsets:
#	150
#	68980
#	133814
#	185848
#	236329
#
# Disc length: 3727 seconds
#
# Revision: 0
# Processed by: cddbd v1.5.1PL2 Copyright (c) Steve Scherf et al.
# Submitted via: CDex 1.51
#
DISCID=470e8d05
DTITLE=Orange Fusion - Sax Sells
DYEAR=2005
DGENRE=Jazz
TTITLE0=Our Time
TTITLE1=Trouble Me
TTITLE2=Fine Lines
TTITLE3=Don't Talk
TTITLE4=I Can't Ignore
EXTD=YEAR: 2005
EXTT0=
EXTT1=
EXTT2=
EXTT3=
EXTT4=
PLAYORDER=
